# xmcd
#
# Track frame offsets:
#	208
#	5881
#	24405
#	45653
#	69997
#	84899
#	104019
#	121282
#	144222
#	162106
#	181570
#	199001
#
# Disc length: 2791 seconds
#
# Revision: 0
# Processed by: cddbd v1.4PL0 Copyright (c) Steve Scherf et al.
# Submitted via: dBpowerAMP V4.0
#
DISCID=8f0ae50c
DTITLE=King Johnson - Cats And Dogs
DYEAR=1995
DGENRE=Blues
TTITLE0=Cold Cuts
TTITLE1=To The Devil For A Dime
TTITLE2=Verge Of Tears
TTITLE3=Meet Me In New Orleans
TTITLE4=You Bug Me
TTITLE5=Tired
TTITLE6=Got The Devil In You
TTITLE7=Where My Baby Might Be
TTITLE8=Swim
TTITLE9=Tell The Truth
TTITLE10=Just Like Cats And Dogs
TTITLE11=Thangs Is Gonna Be Alright
EXTD=
EXTT0=
EXTT1=
EXTT2=
EXTT3=
EXTT4=
EXTT5=
EXTT6=
EXTT7=
EXTT8=
EXTT9=
EXTT10=
EXTT11=
PLAYORDER=
